# xmcd
#
# Track frame offsets:
#	150
#	6763
#	18156
#	28689
#	32429
#	48189
#	62373
#	73864
#	87634
#	100051
#	115302
#	122905
#	140901
#	155341
#	166903
#	180646
#	194789
#	205805
#	223824
#	235096
#	246483
#	257449
#	265027
#	274155
#
# Disc length: 3742 seconds
#
# Revision: 1
# Processed by: cddbd v1.5.2PL0 Copyright (c) Steve Scherf et al.
# Submitted via: EasyCDDAExtractor 16.0.6.1
#
DISCID=590e9c18
DTITLE=Άνευ ερμηνευτού - Τα Ελληνικά Εμβατήρια Εθνικός Ύμνος
DYEAR=1995
DGENRE=Στρατιωτική
TTITLE0=Εθνικός Ύμνος [Μπάντα Αστυνομίας Πόλεων, διευθ. Βασίλης Σωζόπουλος]
TTITLE1=Η Ελλάδα ποτέ δεν πεθαίνει [Μπάντα Αστυνομίας Πόλεων, διευθ. Δημ. Μπου
TTITLE1=κουβάλας]
TTITLE2=Θριαμβευτικόν [Μπάντα Αστυνομίας Πόλεων, διευθ. Δημήτρης Μπουκουβάλας]
TTITLE3=Εμβατήριο Σημαίας [Μπάντα Αστυνομίας Πόλεων, διευθ. Δημήτρης Μπουκουβά
TTITLE3=λας]
TTITLE4=Σκέπασε μάνα, σκέπασε (Η σημαία μας) [Μπάντα Αστυν. Πόλεων, διευθ. Δημ
TTITLE4=Μπουκουβάλας]
TTITLE5=Αλλαγή φρουράς [Μπάντα Αστυνομίας Πόλεων, διευθ. Δημήτρης Μπουκουβάλας
TTITLE5=]
TTITLE6=Περνάει ο στρατός [Μπάντα Αστυνομίας Πόλεων, διευθ. Δημήτρης Μπουκουβά
TTITLE6=λας]
TTITLE7=Μαύρη είν' η νύχτα στα βουνά [Μπάντα Αστυνομίας Πόλεων, διευθ. Δημ. Μπ
TTITLE7=ουκουβάλας]
TTITLE8=Πίνδος [Μπάντα Αστυνομίας Πόλεων, διευθ. Δημήτρης Μπουκουβάλας]
TTITLE9=Ο Γράμμος [Μπάντα Αστυνομίας Πόλεων, διευθ. Δημήτρης Μπουκουβάλας]
TTITLE10=Ύμνος αεροπορίας [Μπάντα Αστυνομίας Πόλεων, διευθ. Δημήτρης Μπουκουβά
TTITLE10=λας]
TTITLE11=Οι πρόσκοποι [Μπάντα Αστυνομίας Πόλεων, διευθ. Δημήτρης Μπουκουβάλας]
TTITLE12=Η Μακεδονία μας [Στρατιωτική Μπάντα Αθηνών (Α.Σ.Δ.Ε.Ν.), διευθ. Αναστ
TTITLE12=άσιος Ρεμούνδος]
TTITLE13=Ο Έλλην στρατιώτης [Στρατιωτική Μπάντα Αθηνών (Α.Σ.Δ.Ε.Ν.), διευθ. Αν
TTITLE13=αστάσιος Ρεμούνδος]
TTITLE14=Περνούν στρατιώτες [Στρατιωτική Μπάντα Αθηνών (Α.Σ.Δ.Ε.Ν.), διευθ. Αν
TTITLE14=αστάσιος Ρεμούνδος]
TTITLE15=Μέσ' στα χαρακώματα [Στρατιωτική Μπάντα Αθηνών (Α.Σ.Δ.Ε.Ν.), διευθ. Α
TTITLE15=ναστ. Ρεμούνδος]
TTITLE16=Στα κανόνια [Στρατιωτική Μπάντα Αθηνών (Α.Σ.Δ.Ε.Ν.), διευθ. Αναστάσιο
TTITLE16=ς Ρεμούνδος]
TTITLE17=Η μάχη [Στρατιωτική Μπάντα Αθηνών (Α.Σ.Δ.Ε.Ν.), διευθ. Αναστάσιος Ρεμ
TTITLE17=ούνδος]
TTITLE18=Ύμνος Ιερού Λόχου [Στρατιωτική Μπάντα Αθηνών (Α.Σ.Δ.Ε.Ν.), διευθ. Ανα
TTITLE18=στάσιος Ρεμούνδος]
TTITLE19=Ευζωνάκι [Στρατιωτική Μπάντα Αθηνών (Α.Σ.Δ.Ε.Ν.), διευθ. Αναστάσιος Ρ
TTITLE19=εμούνδος]
TTITLE20=Οι ουρανοί είναι δικοί μας [Μπάντα Ελληνικής Αεροπορείας, διευθ. Σπύρ
TTITLE20=ος Πουλημένος]
TTITLE21=Είμαστε απ' τη γενιά του Ίκαρου [Μπάντα Ελληνικής Αεροπορείας, διευθ.
TTITLE21=Σπύρος Πουλημένος]
TTITLE22=Ο χορός του Ζαλόγγου [Μπάντα Ελληνικής Αεροπορείας, διευθ. Σπύρος Που
TTITLE22=λημένος]
TTITLE23=Εθνικός Ύμνος [Μπάντα Αστυνομίας Πόλεων, διευθ. Βασίλης Σωζόπουλος]
EXTD=
EXTT0=
EXTT1=
EXTT2=
EXTT3=
EXTT4=
EXTT5=
EXTT6=
EXTT7=
EXTT8=
EXTT9=
EXTT10=
EXTT11=
EXTT12=
EXTT13=
EXTT14=
EXTT15=
EXTT16=
EXTT17=
EXTT18=
EXTT19=
EXTT20=
EXTT21=
EXTT22=
EXTT23=
PLAYORDER=
